HIERARCHY
ROOT Hips
{
  OFFSET 267.745 86.9975 -272.335
  CHANNELS 6 Xposition Yposition Zposition Zrotation Xrotation Yrotation
  JOINT LeftUpLeg
  {
    OFFSET 8.64259 1.95398 -2.38835
    CHANNELS 3 Zrotation Xrotation Yrotation
    JOINT LeftLeg
    {
      OFFSET 43.7702 0 0
      CHANNELS 3 Zrotation Xrotation Yrotation
      JOINT LeftFoot
      {
        OFFSET 40.6238 0 0
        CHANNELS 3 Zrotation Xrotation Yrotation
        JOINT LeftToeBase
        {
          OFFSET 12.7242 0 0
          CHANNELS 3 Zrotation Xrotation Yrotation
          End Site
          {
            OFFSET 0 0 0
          }
        }
      }
    }
  }
  JOINT RightUpLeg
  {
    OFFSET -8.2249 1.95398 -2.59336
    CHANNELS 3 Zrotation Xrotation Yrotation
    JOINT RightLeg
    {
      OFFSET 43.5653 0 0
      CHANNELS 3 Zrotation Xrotation Yrotation
      JOINT RightFoot
      {
        OFFSET 40.6238 0 0
        CHANNELS 3 Zrotation Xrotation Yrotation
        JOINT RightToeBase
        {
          OFFSET 12.7242 0 0
          CHANNELS 3 Zrotation Xrotation Yrotation
          End Site
          {
            OFFSET 0 0 0
          }
        }
      }
    }
  }
  JOINT Spine
  {
    OFFSET 0.165834 0.87714 6.61349
    CHANNELS 3 Zrotation Xrotation Yrotation
    JOINT Spine1
    {
      OFFSET 7.38963 1.71661e-005 0
      CHANNELS 3 Zrotation Xrotation Yrotation
      JOINT Spine2
      {
        OFFSET 11.9445 1.14441e-005 0
        CHANNELS 3 Zrotation Xrotation Yrotation
        JOINT Spine3
        {
          OFFSET 14.7254 4.19617e-005 0
          CHANNELS 3 Zrotation Xrotation Yrotation
          JOINT Spine4
          {
            OFFSET 10.9679 0 0
            CHANNELS 3 Zrotation Xrotation Yrotation
            JOINT RightShoulder
            {
              OFFSET 2.46616 -1.6653 3.69651
              CHANNELS 3 Zrotation Xrotation Yrotation
              JOINT RightArm
              {
                OFFSET 13.0012 0 0
                CHANNELS 3 Zrotation Xrotation Yrotation
                JOINT RightForeArm
                {
                  OFFSET 28.7848 1.52588e-005 0
                  CHANNELS 3 Zrotation Xrotation Yrotation
                  JOINT RightHand
                  {
                    OFFSET 26.5688 1.52588e-005 0
                    CHANNELS 3 Zrotation Xrotation Yrotation
                    End Site
                    {
                      OFFSET 0 0 0
                    }
                  }
                }
              }
            }
            JOINT LeftShoulder
            {
              OFFSET 2.38034 -1.29275 -3.7523
              CHANNELS 3 Zrotation Xrotation Yrotation
              JOINT LeftArm
              {
                OFFSET 16.3182 6.10352e-005 0
                CHANNELS 3 Zrotation Xrotation Yrotation
                JOINT LeftForeArm
                {
                  OFFSET 27.0901 0 0
                  CHANNELS 3 Zrotation Xrotation Yrotation
                  JOINT LeftHand
                  {
                    OFFSET 24.5451 1.52588e-005 0
                    CHANNELS 3 Zrotation Xrotation Yrotation
                    End Site
                    {
                      OFFSET 0 0 0
                    }
                  }
                }
              }
            }
            JOINT Neck
            {
              OFFSET 5.0226 -0.0266342 0
              CHANNELS 3 Zrotation Xrotation Yrotation
              JOINT Head
              {
                OFFSET 6.69364 2.86102e-005 0
                CHANNELS 3 Zrotation Xrotation Yrotation
                End Site
                {
                  OFFSET 0 0 0
                }
              }
            }
          }
        }
      }
    }
  }
}
MOTION
Frames:	18
Frame Time:	0.0416667
-1.98295 13.7643 -52.2907 168.277 -4.38425 169.632 -158.097 72.9325 53.6677 -133.021 8.7502 3.45417 42.3501 -9.89773 -5.79787 18.1433 0.372496 3.94047 168.137 65.7743 59.7018 -101.389 -32.7045 -0.78699 42.906 15.035 12.3622 19.809 2.61364 -2.07821 -0.871811 14.6314 -90.9342 -2.41337 -2.0584 -1.97399 -14.084 -2.14327 -1.88148 -36.6139 -1.37018 -2.50116 -16.6013 -1.37019 -2.50115 95.4561 -19.3117 -98.7349 90.4394 -25.9263 36.1677 -13.03 -16.3834 -45.2638 -74.5355 -8.26532 5.85656 -86.4793 -39.0779 81.8711 -14.3389 32.8951 -6.64458 6.22576 14.5477 -43.7409 -3.643 -0.0102483 -9.2574 -50.3184 3.86598 -16.1312 -5.69529 -1.18236 -1.03764 
-1.96429 13.632 -52.3847 169.193 -4.86361 170.831 -155.405 72.305 52.5387 -135.362 6.96417 3.56104 43.4398 -8.80745 -3.89593 16.777 0.328112 4.63372 176.951 68.7269 51.3896 -110.156 -34.4307 -2.4138 41.7808 15.6522 11.7695 21.3736 2.18476 -2.05012 -0.803751 14.8682 -90.9792 -2.8867 -1.93357 -2.06225 -14.5577 -2.02244 -1.97518 -37.0852 -1.22462 -2.54779 -17.0726 -1.22461 -2.54779 95.0337 -17.795 -100.29 89.2341 -27.8265 31.1054 -5.59845 -17.1669 -37.925 -78.9257 -7.89766 4.56877 -86.4081 -35.7181 81.3111 -13.6444 35.8309 -11.4181 0.927976 14.3251 -39.0785 -3.43549 -0.037807 -10.0483 -51.2805 3.89823 -15.3486 -4.59932 -1.05985 -1.13435 
-1.74089 13.757 -52.3204 169.452 -6.14579 172.755 -159.356 71.8287 56.8216 -136.166 4.92712 3.46293 47.5097 -5.74198 -0.39077 20.7309 0.124217 4.19551 -176.47 69.3788 45.6478 -115.811 -36.3159 -3.10492 41.5991 15.6963 11.0728 19.2659 3.05955 -3.64439 -0.71465 14.9523 -90.9979 -3.05338 -1.76119 -2.08696 -14.7247 -1.85131 -2.00744 -37.2505 -1.05278 -2.51955 -17.2379 -1.05278 -2.51956 94.398 -18.7191 -101.536 85.5414 -28.115 25.9532 0.217901 -19.2559 -29.8144 -81.4757 -7.9678 4.1861 -86.4389 -32.9242 80.6393 -17.373 34.3284 -11.2562 1.15213 18.2867 -35.8697 -7.33036 0.215604 -11.3639 -51.4142 3.8795 -15.0999 -4.38041 -1.0146 -0.987441 
-1.82081 14.1057 -52.0196 169.949 -8.25889 174.763 -168.111 72.149 66.3574 -135.755 4.10466 3.22063 48.3273 -4.4398 3.56755 25.6991 -0.425202 5.35806 -173.08 70.2194 44.9146 -119.958 -36.7926 -3.45476 43.7545 14.2427 8.91108 17.0572 3.44256 -2.41744 -0.543584 15.0502 -91.0533 -3.24654 -1.43807 -2.1687 -14.9184 -1.53211 -2.10333 -37.4411 -0.720046 -2.50044 -17.4285 -0.720043 -2.50044 94.0027 -21.4544 -101.496 80.4908 -28.5548 22.2781 4.28096 -20.9953 -23.3555 -85.5488 -8.11047 3.69203 -86.4402 -31.8954 80.3976 -19.3843 35.7564 -10.5422 0.0193954 18.0324 -34.841 -3.20855 -0.0504884 -10.3223 -48.8197 3.31965 -13.6987 -4.65491 -0.78924 -1.98555 
-1.75456 14.9173 -51.2415 168.501 -12.1401 176.353 -175.652 75.2249 74.4465 -136.187 7.11858 2.83264 46.2525 -5.64301 5.86872 29.4727 -0.728583 5.84314 -172.666 73.4166 45.6362 -125.117 -34.3816 -3.7099 46.3011 12.353 6.37364 14.8256 3.2887 1.10853 -0.554667 15.1027 -91.3138 -3.35802 -1.54758 -2.68388 -15.0307 -1.66415 -2.61325 -37.5457 -0.66983 -3.02461 -17.533 -0.669823 -3.0246 93.6021 -26.138 -100.857 72.7941 -29.4324 18.9167 7.63842 -22.2855 -18.238 -81.3054 -7.36614 3.55641 -86.8692 -32.134 79.6441 -20.0801 37.088 -10.2537 -1.56806 17.561 -34.2615 -1.85998 -0.115251 -9.725 -46.8149 2.36856 -11.7146 -2.7527 -0.949013 -1.40871 
-1.46549 16.166 -49.1112 167.574 -16.0499 174.446 -161.61 76.9146 61.2635 -138.328 5.59058 3.10661 48.574 -3.56679 7.1208 31.382 -0.902143 6.47932 -152.156 73.3251 26.2099 -134.834 -37.7868 -3.42904 51.8257 8.0877 2.65075 18.3751 3.1241 -2.6797 -0.82236 14.9729 -91.1709 -3.10245 -2.03371 -2.44697 -14.7739 -2.1394 -2.35514 -37.2961 -1.20465 -2.94469 -17.2834 -1.20464 -2.9447 93.8442 -31.0696 -98.9539 65.2465 -28.6379 15.5178 10.8414 -23.2036 -12.5626 -84.203 -6.13945 1.7466 -87.5375 -33.0457 78.6234 -21.6339 37.6403 -8.94246 0.241632 22.8283 -33.6299 2.3967 -0.274189 -8.77883 -48.9222 2.05582 -10.7416 -1.0925 -1.24636 -1.28287 
-0.451563 17.4469 -46.0801 166.809 -20.709 170.825 -132.448 74.145 32.0448 -141.132 0.696318 3.9291 52.5194 0.263968 10.8187 34.9021 -1.09424 6.59497 -130.884 68.1143 5.13624 -141.814 -41.2187 -2.44915 53.9501 5.45272 -2.67022 23.0687 1.75989 -2.26707 -1.29156 14.4778 -90.886 -2.11498 -2.87959 -1.93636 -13.784 -2.96201 -1.80771 -36.3236 -2.16471 -2.71218 -16.3109 -2.16471 -2.71217 94.6363 -33.9971 -96.7046 60.0697 -26.259 14.2904 12.486 -29.6142 -7.73511 -85.0393 -7.51994 3.17811 -87.2015 -35.2267 79.7732 -23.5436 35.8954 -7.62285 -0.396861 27.8014 -30.7202 3.87948 -0.270062 -7.64685 -52.5442 1.92398 -8.95479 0.722213 -1.15807 -0.833906 
1.02108 17.9243 -42.8263 164.254 -24.4321 166.682 -114.331 67.6498 11.2706 -144.015 -5.0138 4.90649 55.8642 3.8916 13.0738 37.3006 -1.27473 7.5635 -123.458 61.7799 -4.64689 -143.51 -44.1558 -1.75215 54.7358 4.95661 -5.66624 26.5326 0.425768 1.31976 -1.92326 14.0867 -90.771 -1.34355 -4.10482 -1.76709 -13.009 -4.1786 -1.5845 -35.5725 -3.38404 -2.91977 -15.5598 -3.38405 -2.91978 95.6154 -36.2058 -94.4316 55.3172 -25.0349 14.722 13.6229 -33.0461 -5.17053 -88.9702 -7.21265 2.29452 -87.0863 -35.5819 80.0608 -29.0763 33.4887 -4.61797 0.274628 33.7651 -28.4356 6.41469 -0.245341 -6.44946 -53.3916 1.20461 -6.77116 1.63813 -1.12995 0.313616 
2.19106 18.3543 -40.3208 159.605 -27.3166 162.167 -108.309 61.5799 1.46681 -145.832 -7.58275 5.53087 57.8531 6.26986 15.7444 39.5193 -1.38007 8.27262 -122.908 56.5532 -8.90688 -145.073 -47.527 -1.16367 56.1369 2.98664 -8.89966 33.1417 -1.13767 0.840429 -2.47876 14.123 -90.8326 -1.43643 -5.2315 -1.96838 -13.098 -5.31304 -1.73569 -35.6851 -4.39804 -3.45152 -15.6724 -4.39804 -3.45153 96.0556 -43.9588 -92.4621 44.2653 -25.6121 11.8905 16.7413 -33.9937 -1.5865 -86.3355 -8.03564 3.52433 -87.0494 -34.9053 79.9767 -34.6686 28.8892 -3.08282 1.43814 39.5689 -25.8847 7.75715 -0.312879 -6.77817 -52.4131 0.234313 -4.9717 4.58846 -1.25716 2.27734 
2.90912 19.3832 -38.9912 155.349 -30.8451 156.601 -105.799 57.0825 -3.46036 -145.721 -9.12117 6.08052 59.1048 7.59257 17.0533 43.687 -1.54172 8.6234 -122.272 53.3809 -12.7077 -146.511 -49.764 -0.845583 60.3878 -1.7309 -11.6515 37.0554 -2.0611 0.98945 -2.68817 14.4196 -91.0083 -2.05002 -5.70175 -2.38483 -13.7102 -5.80115 -2.13091 -36.3019 -4.72153 -3.99021 -16.2893 -4.72154 -3.99021 95.5231 -52.9711 -92.1511 31.8633 -25.4716 6.25103 19.6873 -34.7252 0.0127439 -79.3413 -10.9477 8.20423 -86.9058 -37.9911 80.911 -34.5233 22.5123 -5.87336 5.61615 50.4959 -25.2148 12.0507 -0.00160228 -3.66716 -48.5701 -2.6432 0.648486 8.56905 -2.60458 -0.331329 
3.59728 21.2384 -38.7821 151.206 -34.0426 152.226 -107.869 56.2759 -2.75095 -144.621 -6.77758 6.05411 59.6904 9.25724 20.958 46.3167 -1.59343 9.81438 -125.538 53.449 -12.6093 -146.443 -50.7527 -1.03794 63.7989 -6.57954 -14.8004 41.5184 -3.14656 0.164555 -2.31652 14.8981 -91.2467 -3.00593 -5.02418 -2.87315 -14.6696 -5.14577 -2.64892 -37.2322 -3.92871 -4.25043 -17.2196 -3.92871 -4.25043 94.1596 -52.572 -94.2525 34.9331 -30.047 5.06237 16.2175 -36.3847 -3.45619 -62.9919 -9.81253 10.977 -87.1077 -41.4099 81.2634 -30.0928 17.2191 -11.9759 6.06953 61.5473 -22.0846 14.4619 0.39653 -1.0624 -43.0926 -4.3311 2.04853 12.4027 -4.52134 -3.54269 
3.8134 24.3676 -39.4398 150.137 -32.134 160.589 -131.083 65.0125 22.2586 -143.869 -5.33587 4.64402 64.1206 13.5339 22.1044 46.1688 -1.66172 7.68957 -158.277 62.0509 20.4731 -143.532 -45.0056 -2.49183 65.2517 -10.7256 -18.4665 45.6752 -4.02818 1.47874 -0.987746 16.1874 -92.1573 -5.58068 -2.64791 -4.46978 -17.2566 -2.84183 -4.34919 -39.7342 -1.18442 -5.05747 -19.7215 -1.18441 -5.05748 94.1846 -48.9232 -94.7644 40.5499 -45.6257 11.6428 -2.2753 -22.4002 -26.8692 -31.464 -3.17312 4.60501 -87.0002 -44.6624 82.0679 -24.4409 12.7133 -17.3712 1.01579 66.7406 -14.9927 15.2427 0.836013 1.59334 -36.2836 -4.78517 0.928603 13.8061 -5.63294 -5.61087 
1.14869 27.7986 -38.6599 152.039 -39.5979 160.152 -138.63 70.3896 36.2544 -142.809 3.50088 3.57681 66.7614 17.4052 26.1146 47.1788 -1.80317 5.73796 -170.176 69.3185 37.9129 -143.063 -38.4217 -3.24627 66.054 -15.3178 -24.0581 52.4829 -5.83713 0.354692 -0.497273 16.3428 -91.4054 -5.83778 -1.42979 -2.8892 -17.5109 -1.55552 -2.82354 -40.0223 -0.49579 -3.18503 -20.0096 -0.495789 -3.18503 95.4823 -45.1171 -93.2448 35.1534 -56.5067 13.1831 -19.8293 -16.1765 -43.0335 -15.4896 -0.442376 -1.43146 -86.9802 -49.5209 82.924 -17.5547 7.91577 -22.7769 -10.113 70.6724 -2.49183 17.4058 1.00973 1.93835 -29.2509 -4.46208 -0.0179339 14.701 -5.76893 -7.17431 
-0.827599 30.6785 -36.7641 150.536 -45.584 155.036 -141.767 71.7953 41.6909 -141.555 7.71745 3.27221 68.9028 19.7098 26.7103 49.8209 -1.77412 8.42108 -176.422 71.1802 45.8563 -143.165 -33.48 -3.50166 70.6352 -22.2621 -25.6708 53.2036 -6.26113 -1.5895 -0.728744 16.1982 -90.4774 -5.53357 -1.59454 -1.11431 -17.2039 -1.64203 -1.04305 -39.7401 -1.18597 -1.542 -19.7275 -1.18596 -1.54199 96.6635 -40.3509 -91.8909 24.9116 -50.4232 6.99696 -19.7592 -7.05888 -49.1621 -15.748 -0.458001 -1.84894 -87.9333 -51.5714 81.8513 -14.0788 2.46726 -25.3076 -10.9028 74.2496 -0.0601342 15.2218 1.03713 2.90706 -22.9609 -2.96303 -3.39496 13.1922 -4.02945 -5.38208 
-2.00482 32.5271 -33.9856 146.754 -50.3282 148.729 -139.878 73.9234 40.2835 -142.091 8.53386 3.21016 71.5925 19.682 22.275 51.0601 -1.63223 10.7146 179.659 71.6425 48.5649 -143.72 -30.8511 -3.49211 74.0683 -28.7777 -28.0167 54.5935 -6.37976 -0.0159287 -1.01022 15.8448 -89.7159 -4.81695 -1.90839 0.335634 -16.4866 -1.89177 0.419328 -39.0328 -1.92101 -0.253668 -19.0201 -1.92101 -0.253655 97.81 -36.3267 -90.314 16.405 -31.6587 -1.74595 -14.801 -4.62176 -50.138 -12.4588 -0.0826726 -4.54906 -88.3073 -51.2786 81.2453 -13.6174 -3.6454 -25.9403 -7.49887 78.6732 -0.0674149 13.1139 0.720628 1.5901 -18.5285 -2.25131 -6.58283 11.4577 -3.12295 -5.17745 
-3.13409 34.3351 -31.3809 146.014 -51.3236 146.028 -151.688 75.3596 53.1557 -142.748 10.7664 2.77236 72.3729 16.8187 15.9358 53.1365 -1.50518 12.5845 -177.419 67.8747 43.5704 -144.701 -32.1778 -3.30211 81.4617 -30.4727 -19.1047 47.2977 -4.99616 -4.7816 -1.0125 15.7527 -89.3958 -4.62851 -1.80748 0.967568 -16.2987 -1.76314 1.04618 -38.8431 -2.01469 0.37943 -18.8304 -2.01469 0.379423 98.5898 -32.9613 -89.197 11.1065 -13.6373 -7.777 -9.34367 -3.401 -50.1994 -13.661 -0.0483009 -5.02447 -88.4537 -50.3027 80.8486 -12.0352 -4.57922 -23.948 -7.25406 79.4494 -0.0596974 7.9849 0.3173 0.28918 -15.8774 -3.05854 -6.53452 10.5458 -3.83859 -6.05657 
-3.94195 36.0968 -28.9788 142.637 -53.7976 141.863 -156.527 76.818 57.5777 -142.532 8.75288 2.7857 72.6411 14.5564 10.0766 52.4079 -1.50494 12.4381 -177.769 69.3905 42.1163 -144.881 -34.9054 -3.44008 75.4012 -25.5188 -21.8992 57.3964 -7.09339 -0.556399 -1.08239 15.2875 -89.4023 -3.69731 -1.94702 0.966855 -15.3672 -1.90257 1.05162 -37.9135 -2.14754 0.33677 -17.9008 -2.14755 0.336773 98.944 -30.0782 -88.7887 9.65553 2.45 -15.0389 -8.95342 -5.24567 -51.1955 -13.3176 -0.0651579 -4.7625 -88.0787 -47.8025 80.9485 -10.9075 -0.910377 -21.2943 -10.7665 75.7108 1.46493 -1.10949 -0.0552729 -3.35866 -14.944 -3.42495 -5.11621 9.47343 -4.13703 -6.33676 
-4.70317 38.9983 -27.229 139.168 -57.8233 137.391 -165.292 76.5736 66.1497 -139.937 7.61455 2.84234 73.163 14.1775 8.26688 55.9196 -1.74832 10.5226 179.064 69.0824 45.8212 -143.082 -28.7502 -3.5442 84.0564 -25.92 -9.91189 51.9972 -5.85583 -0.901986 -1.13344 14.6514 -89.3052 -2.42325 -2.01193 1.18306 -14.0933 -1.95791 1.27046 -36.6397 -2.27443 0.523466 -16.6271 -2.27442 0.523462 99.5151 -27.0501 -87.883 15.4502 10.2793 -24.7643 -11.0957 -6.69736 -55.4228 -11.4789 0.00564172 -5.43869 -87.248 -43.1917 81.3841 -8.44555 5.13507 -18.4082 -0.6672 60.764 -11.0159 -6.46155 -0.0241698 -6.22836 -14.4417 -3.09534 -6.57311 8.94807 -3.50372 -4.30742 
